<svg xmlns="http://www.w3.org/2000/svg" viewBox="0 0 1024 1024">
  <defs>
    <linearGradient id="edge" x1="120" x2="904" y1="512" y2="512" gradientUnits="userSpaceOnUse">
      <stop stop-color="#31c8ff"/>
      <stop offset=".28" stop-color="#4486ff"/>
      <stop offset=".52" stop-color="#7c5cff"/>
      <stop offset=".76" stop-color="#ff4fd8"/>
      <stop offset="1" stop-color="#ff7a3d"/>
    </linearGradient>
    <filter id="glow" x="-30%" y="-30%" width="160%" height="160%">
      <feGaussianBlur stdDeviation="18" result="blur"/>
      <feColorMatrix in="blur" values="1 0 0 0 0  0 1 0 0 0  0 0 1 0 0  0 0 0 .82 0"/>
      <feBlend in="SourceGraphic"/>
    </filter>
  </defs>
  <rect width="1024" height="1024" rx="226" fill="#050506"/>
  <path d="M128 128h768v768H128z" fill="none" stroke="#ffffff" stroke-opacity=".06" stroke-width="2"/>
  <path d="M128 256h768M128 384h768M128 512h768M128 640h768M128 768h768M256 128v768M384 128v768M512 128v768M640 128v768M768 128v768" stroke="#ffffff" stroke-opacity=".055" stroke-width="2"/>
  <path d="M126 371C207 161 416 85 609 111c201 27 342 176 351 386 9 227-159 407-432 430" fill="none" stroke="url(#edge)" stroke-width="14" stroke-linecap="round" filter="url(#glow)"/>
  <path d="M211 758h602" stroke="url(#edge)" stroke-width="12" stroke-linecap="square" filter="url(#glow)"/>
  <g fill="none" stroke="url(#edge)" stroke-width="10" stroke-linecap="round" stroke-linejoin="round">
    <path d="M370 392 512 318l142 74-50 144-92 104-92-104-50-144Z"/>
    <path d="M512 318v322M420 536h184"/>
  </g>
  <g fill="#050506" stroke="url(#edge)" stroke-width="8">
    <circle cx="370" cy="392" r="24"/>
    <circle cx="512" cy="318" r="24"/>
    <circle cx="654" cy="392" r="24"/>
    <circle cx="420" cy="536" r="24"/>
    <circle cx="604" cy="536" r="24"/>
    <circle cx="512" cy="640" r="24"/>
  </g>
</svg>
